<?xml version="1.0" encoding="UTF-8" standalone="no"?>
<!DOCTYPE svg PUBLIC "-//W3C//DTD SVG 1.1//EN" "http://www.w3.org/Graphics/SVG/1.1/DTD/svg11.dtd">
<svg width="100%" height="100%" viewBox="0 0 800 800" version="1.1" xmlns="http://www.w3.org/2000/svg" xmlns:xlink="http://www.w3.org/1999/xlink" xml:space="preserve" xmlns:serif="http://www.serif.com/" style="fill-rule:evenodd;clip-rule:evenodd;stroke-linecap:round;stroke-linejoin:round;stroke-miterlimit:1.5;">
    <g transform="matrix(1,0,0,1,-5443,-129)">
        <g id="Artboard3" transform="matrix(1.00237,0,0,1.00237,-13.7348,-0.666919)">
            <rect x="5443.85" y="129.361" width="798.089" height="798.089" style="fill:none;"/>
            <clipPath id="_clip1">
                <rect x="5443.85" y="129.361" width="798.089" height="798.089"/>
            </clipPath>
            <g clip-path="url(#_clip1)">
                <g transform="matrix(0.889757,0,0,0.889757,2985.67,-1164.52)">
                    <path d="M3090.76,1557.08L3209.64,1900.9L3211.56,1900.9L3331.4,1557.08L3453.81,1557.08L3453.81,2023.63L3360.24,2023.63L3360.24,1884.56L3369.22,1678.52L3367.29,1678.2L3242.32,2023.63L3179.52,2023.63L3055.19,1679.48L3053.27,1679.8L3062.24,1884.56L3062.24,2023.63L2968.67,2023.63L2968.67,1557.08L3090.76,1557.08Z" style="fill:url(#_Linear2);fill-rule:nonzero;"/>
                </g>
                <g transform="matrix(1.5266,0,0,1.47788,87.4116,-1038.89)">
                    <circle cx="3770.13" cy="1002.65" r="221.145" style="fill:none;stroke:white;stroke-width:127.92px;"/>
                </g>
                <g transform="matrix(0.472592,0,0,0.472592,4081.4,85.1639)">
                    <circle cx="3727.31" cy="756.979" r="582.952" style="fill:none;stroke:rgb(26,26,26);stroke-width:27.77px;"/>
                </g>
                <g transform="matrix(0.997639,0,0,0.997639,227.043,-9.40758)">
                    <text x="5390.72px" y="895.123px" style="font-family:'Roboto-Bold', 'Roboto';font-weight:700;font-size:170.114px;">B<tspan x="5497.83px 5591.81px 5685.79px 5774.87px " y="895.123px 895.123px 895.123px 895.123px ">ooks</tspan></text>
                </g>
            </g>
        </g>
    </g>
    <defs>
        <linearGradient id="_Linear2" x1="0" y1="0" x2="1" y2="0" gradientUnits="userSpaceOnUse" gradientTransform="matrix(485.135,0,0,466.55,2968.67,1790.35)"><stop offset="0" style="stop-color:rgb(255,60,5);stop-opacity:1"/><stop offset="1" style="stop-color:rgb(255,170,0);stop-opacity:1"/></linearGradient>
    </defs>
</svg>
