<?xml version="1.0" standalone="no"?>
<!DOCTYPE svg PUBLIC "-//W3C//DTD SVG 20010904//EN"
 "http://www.w3.org/TR/2001/REC-SVG-20010904/DTD/svg10.dtd">
<svg version="1.0" xmlns="http://www.w3.org/2000/svg"
 width="500.000000pt" height="500.000000pt" viewBox="0 0 500.000000 500.000000"
 preserveAspectRatio="xMidYMid meet">
<metadata>
Created by potrace 1.11, written by Peter Selinger 2001-2013
</metadata>
<g transform="translate(0.000000,500.000000) scale(0.100000,-0.100000)"
fill="#000000" stroke="none">
<path d="M2380 4489 c-863 -48 -1602 -663 -1814 -1507 -77 -307 -77 -657 0
-964 179 -714 738 -1273 1452 -1452 509 -128 1080 -41 1519 231 515 320 850
830 938 1428 21 144 21 406 0 550 -65 440 -260 829 -572 1137 -409 406 -944
609 -1523 577z m390 -109 c620 -89 1153 -475 1435 -1039 231 -462 257 -1030
71 -1520 -167 -436 -505 -809 -926 -1021 -583 -293 -1298 -261 -1850 83 -238
149 -469 380 -617 617 -344 552 -376 1267 -83 1850 182 362 488 668 850 850
340 171 739 235 1120 180z"/>
<path d="M1642 3906 c-62 -35 -148 -90 -190 -122 -161 -121 -340 -317 -433
-475 l-39 -67 0 -742 0 -742 39 -67 c96 -163 269 -352 441 -480 l95 -71 3 417
c2 321 -3 555 -22 1008 -14 325 -28 623 -31 663 -3 52 -2 73 6 70 6 -2 92
-226 190 -498 99 -272 274 -757 391 -1078 l211 -582 195 2 196 3 32 91 c19 56
28 97 23 105 -5 8 -3 20 4 29 20 24 15 55 -8 52 -18 -2 -19 -2 -2 8 9 6 17 16
17 23 0 7 -4 6 -10 -3 -7 -10 -10 -11 -10 -2 0 7 7 15 15 18 11 5 12 9 2 19
-7 7 -15 11 -19 8 -5 -2 -8 1 -8 6 0 6 7 11 15 11 8 0 15 5 15 11 0 5 -4 7
-10 4 -6 -3 -7 1 -4 9 3 9 11 13 17 9 6 -3 7 -1 3 6 -4 6 -2 19 5 27 10 12 9
13 -7 8 -10 -4 -16 -4 -12 1 4 4 0 14 -10 22 -9 8 -11 12 -4 8 6 -3 12 -1 12
4 0 18 -5 26 -12 24 -4 -2 -5 4 -1 13 5 13 7 13 14 2 10 -15 10 -14 15 26 2
16 -3 44 -11 62 -8 19 -12 44 -9 56 3 13 6 28 7 33 2 6 7 16 11 24 7 10 6 12
-4 6 -10 -6 -11 -2 -6 19 4 15 2 26 -4 26 -5 0 -10 8 -10 18 0 14 2 15 10 2 5
-8 10 -13 11 -10 0 3 2 15 5 28 3 15 -1 22 -11 22 -8 0 -15 5 -15 10 0 6 4 10
9 10 10 0 9 19 -2 37 -4 6 -3 14 3 18 5 3 10 15 10 25 0 14 -5 18 -17 13 -17
-7 -17 -6 0 11 9 10 14 22 11 28 -4 6 0 15 7 20 11 7 11 11 1 15 -6 2 -10 8
-7 13 3 4 7 32 9 61 2 30 2 48 -1 42 -3 -7 -9 -13 -14 -13 -14 0 -11 38 4 43
7 3 5 6 -5 6 -10 1 -18 5 -18 11 0 5 7 7 16 3 14 -5 15 -3 4 16 -10 19 -9 26
6 42 14 16 15 19 3 14 -10 -4 -16 0 -16 9 0 8 5 12 10 9 6 -4 7 4 3 21 -4 18
-3 25 3 21 7 -4 8 0 5 10 -4 10 -13 14 -22 10 -14 -5 -14 -4 0 12 8 10 13 24
11 31 -3 7 1 19 7 28 7 8 10 17 6 21 -3 3 -6 1 -6 -5 0 -7 -5 -12 -11 -12 -7
0 -5 9 5 24 11 18 13 27 4 32 -6 4 -8 3 -4 -4 3 -5 2 -12 -2 -14 -5 -1 -62
-157 -128 -345 -65 -189 -123 -341 -129 -340 -5 2 -169 466 -365 1032 -195
566 -360 1030 -365 1032 -6 2 -61 -26 -123 -61z m1118 -1660 c0 -2 -7 -7 -16
-10 -8 -3 -12 -2 -9 4 6 10 25 14 25 6z m-5 -36 c-3 -5 -12 -10 -18 -10 -7 0
-6 4 3 10 19 12 23 12 15 0z m5 -506 c0 -8 -5 -12 -10 -9 -6 4 -8 11 -5 16 9
14 15 11 15 -7z m-6 -312 c3 -5 -1 -9 -9 -9 -8 0 -12 4 -9 9 3 4 7 8 9 8 2 0
6 -4 9 -8z"/>
</g>
</svg>
